<svg id="Ebene_1" data-name="Ebene 1" xmlns="http://www.w3.org/2000/svg" viewBox="0 0 500 500"><defs><style>.cls-1{fill-rule:evenodd;}</style></defs><path class="cls-1" d="M383.41,226.76c-49.91-8.54-92,21.86-112.47,53.45C207,378.74,198.09,453.48,58.35,459.34a.52.52,0,0,0-.48.31H173c49.86,0,89.08-81.15,101.79-103.64,9.17-16.21,19-33.61,31.49-52.86h0c12.68-19.55,37.18-35.24,60.75-35.24,21.27,0,39.74,8.25,52.93,21.44A75,75,0,0,1,367,417.41H327v-25l-46.15,46.15L327,484.68v-25H367a117,117,0,0,0,117-117C484,284.42,442.06,234.66,383.41,226.76Z"/><path class="cls-1" d="M16.21,132.83l202.25,83.78L134.68,14.36A218.23,218.23,0,0,0,16.21,132.83Z"/><path d="M259.61,76.87a180.24,180.24,0,0,1,157.54,92.89l-11.26-2.06Q400,166.41,394,165.52H394l-.23,0a162.09,162.09,0,0,0-98.24,13.9A182.11,182.11,0,0,0,274.64,191L228.49,79.6a177.72,177.72,0,0,1,31.12-2.73m0-39a218.21,218.21,0,0,0-83.69,16.72l83.77,202.25a149.42,149.42,0,0,1,52.53-42.25,125.56,125.56,0,0,1,54.08-12.47,123.8,123.8,0,0,1,20.84,1.79l.23,0h0l.27.05a137.14,137.14,0,0,1,84.47,46q3.42,3.94,6.54,8.14a218.09,218.09,0,0,0-16.72-85.05h0A219.15,219.15,0,0,0,259.61,37.87Z"/><path d="M82.45,225.63,201.71,275c-6,10.22-11.54,19.94-16.68,29-21.62,38.21-35.39,61.18-57.29,75.14a181.13,181.13,0,0,1-34-52.83l-.3-.72-.39-.94a178.82,178.82,0,0,1-10.63-99.08m-25-52.57A218.18,218.18,0,0,0,57,339.42h0l.42,1a1.34,1.34,0,0,0,.07.18h0v0h0c0,.06,0,.11.07.17l.27.64h0a218.79,218.79,0,0,0,62.43,84.22c50.66-17.43,71.67-54.54,98.74-102.39,9.85-17.39,20.41-36.06,33.42-56.11,2.24-3.45,4.64-6.93,7.3-10.32l-1.38-.57L57.45,173.06Z"/></svg>