<?xml version="1.0" encoding="UTF-8"?>
<svg xmlns="http://www.w3.org/2000/svg" xmlns:xlink="http://www.w3.org/1999/xlink" width="30pt" height="27pt" viewBox="0 0 30 27" version="1.1">
<g id="surface1">
<path style=" stroke:none;fill-rule:nonzero;fill:rgb(32.941176%,33.72549%,35.294118%);fill-opacity:1;" d="M 14.5625 10.335938 C 14.5625 11.328125 14.125 12.089844 13.246094 12.617188 C 12.652344 13.007812 11.769531 13.199219 10.589844 13.199219 L 6.410156 13.199219 C 5.078125 13.199219 4.0625 12.945312 3.363281 12.4375 C 2.664062 11.925781 2.316406 11.226562 2.316406 10.335938 L 2.316406 5.121094 C 2.316406 4.113281 2.761719 3.328125 3.65625 2.769531 C 4.277344 2.382812 5.195312 2.1875 6.410156 2.1875 L 10.589844 2.1875 C 11.804688 2.1875 12.703125 2.382812 13.289062 2.769531 C 14.136719 3.300781 14.5625 4.082031 14.5625 5.121094 Z M 14.5625 10.335938 "/>
<path style=" stroke:none;fill-rule:nonzero;fill:rgb(32.941176%,33.72549%,35.294118%);fill-opacity:1;" d="M 27.476562 22.027344 C 27.476562 23.019531 27.039062 23.777344 26.160156 24.304688 C 25.566406 24.695312 24.679688 24.890625 23.503906 24.890625 L 19.324219 24.890625 C 17.992188 24.890625 16.976562 24.636719 16.277344 24.125 C 15.578125 23.613281 15.226562 22.914062 15.226562 22.027344 L 15.226562 16.8125 C 15.226562 15.800781 15.675781 15.015625 16.570312 14.460938 C 17.191406 14.070312 18.109375 13.875 19.324219 13.875 L 23.503906 13.875 C 24.71875 13.875 25.617188 14.070312 26.203125 14.460938 C 27.050781 14.988281 27.476562 15.773438 27.476562 16.8125 Z M 27.476562 22.027344 "/>
<path style=" stroke:none;fill-rule:nonzero;fill:rgb(32.941176%,33.72549%,35.294118%);fill-opacity:1;" d="M 14.5625 22.027344 C 14.5625 23.019531 14.125 23.777344 13.246094 24.304688 C 12.652344 24.695312 11.769531 24.890625 10.589844 24.890625 L 6.410156 24.890625 C 5.078125 24.890625 4.0625 24.636719 3.363281 24.125 C 2.664062 23.613281 2.316406 22.914062 2.316406 22.027344 L 2.316406 16.8125 C 2.316406 15.800781 2.761719 15.015625 3.65625 14.460938 C 4.277344 14.070312 5.195312 13.875 6.410156 13.875 L 10.589844 13.875 C 11.804688 13.875 12.703125 14.070312 13.289062 14.460938 C 14.136719 14.988281 14.5625 15.773438 14.5625 16.8125 Z M 14.5625 22.027344 "/>
<path style=" stroke:none;fill-rule:nonzero;fill:rgb(47.843137%,18.823529%,24.705882%);fill-opacity:1;" d="M 27.476562 10.335938 C 27.476562 11.328125 27.039062 12.089844 26.160156 12.617188 C 25.566406 13.007812 24.679688 13.199219 23.503906 13.199219 L 19.324219 13.199219 C 17.992188 13.199219 16.976562 12.945312 16.277344 12.4375 C 15.578125 11.925781 15.226562 11.226562 15.226562 10.335938 L 15.226562 5.121094 C 15.226562 4.113281 15.675781 3.328125 16.570312 2.769531 C 17.191406 2.382812 18.109375 2.1875 19.324219 2.1875 L 23.503906 2.1875 C 24.71875 2.1875 25.617188 2.382812 26.203125 2.769531 C 27.050781 3.300781 27.476562 4.082031 27.476562 5.121094 Z M 27.476562 10.335938 "/>
<path style="fill-rule:nonzero;fill:rgb(100%,100%,100%);fill-opacity:1;stroke-width:1.995;stroke-linecap:butt;stroke-linejoin:round;stroke:rgb(47.843137%,18.823529%,24.705882%);stroke-opacity:1;stroke-miterlimit:10;" d="M 377.057331 182.21277 C 365.134297 182.21277 353.762617 180.787049 343.217969 178.139281 C 343.562565 163.814177 346.250417 150.711119 350.592331 140.25583 C 358.035612 155.531415 376.850573 166.394053 398.83582 166.394053 C 402.419622 166.394053 405.934505 166.054596 409.311549 165.511464 C 409.793984 169.652845 410.138581 173.930009 410.2075 178.275064 C 399.938529 180.854941 388.773607 182.21277 377.057331 182.21277 Z M 377.057331 182.21277 " transform="matrix(0.0566786,0,0,0.0575367,0,0.000459532)"/>
<path style="fill-rule:nonzero;fill:rgb(100%,100%,100%);fill-opacity:1;stroke-width:1.995;stroke-linecap:butt;stroke-linejoin:round;stroke:rgb(47.843137%,18.823529%,24.705882%);stroke-opacity:1;stroke-miterlimit:10;" d="M 363.411315 121.314104 C 358.518047 117.580073 355.485599 111.877187 355.485599 105.563279 C 355.485599 94.293292 365.134297 85.195832 377.057331 85.195832 C 389.049284 85.195832 398.697982 94.293292 398.697982 105.563279 C 398.697982 112.080862 395.458776 117.851639 390.427669 121.58567 C 399.731771 129.732649 406.830456 145.890824 409.311549 165.647247 C 405.934505 166.190379 402.419622 166.461945 398.83582 166.461945 C 376.850573 166.461945 351.212604 184.588972 343.769323 169.313387 C 346.801771 138.830109 358.380208 125.523377 363.411315 121.314104 Z M 363.411315 121.314104 " transform="matrix(0.0566786,0,0,0.0575367,0,0.000459532)"/>
<path style="fill:none;stroke-width:3.7125;stroke-linecap:square;stroke-linejoin:miter;stroke:rgb(100%,100%,100%);stroke-opacity:1;stroke-miterlimit:10;" d="M 148.865625 122.400368 L 148.865625 160.012253 " transform="matrix(0.0566786,0,0,0.0575367,0,0.000459532)"/>
<path style="fill:none;stroke-width:3.7125;stroke-linecap:square;stroke-linejoin:miter;stroke:rgb(100%,100%,100%);stroke-opacity:1;stroke-miterlimit:10;" d="M 148.865625 141.817334 L 190.90638 141.817334 " transform="matrix(0.0566786,0,0,0.0575367,0,0.000459532)"/>
<path style="fill:none;stroke-width:3.7125;stroke-linecap:square;stroke-linejoin:miter;stroke:rgb(100%,100%,100%);stroke-opacity:1;stroke-miterlimit:10;" d="M 190.90638 142.224683 L 190.90638 160.487494 " transform="matrix(0.0566786,0,0,0.0575367,0,0.000459532)"/>
<path style="fill:none;stroke-width:3.7125;stroke-linecap:square;stroke-linejoin:miter;stroke:rgb(100%,100%,100%);stroke-opacity:1;stroke-miterlimit:10;" d="M 148.865625 141.817334 L 106.82487 141.817334 " transform="matrix(0.0566786,0,0,0.0575367,0,0.000459532)"/>
<path style="fill:none;stroke-width:3.7125;stroke-linecap:square;stroke-linejoin:miter;stroke:rgb(100%,100%,100%);stroke-opacity:1;stroke-miterlimit:10;" d="M 106.82487 142.224683 L 106.82487 160.487494 " transform="matrix(0.0566786,0,0,0.0575367,0,0.000459532)"/>
<path style="fill-rule:nonzero;fill:rgb(100%,100%,100%);fill-opacity:1;stroke-width:2.0048;stroke-linecap:butt;stroke-linejoin:miter;stroke:rgb(100%,100%,100%);stroke-opacity:1;stroke-miterlimit:10;" d="M 175.744141 116.833266 C 175.744141 119.888383 173.263047 122.400368 170.16168 122.400368 L 127.63849 122.400368 C 124.537122 122.400368 121.987109 119.888383 121.987109 116.833266 L 121.987109 91.91709 C 121.987109 88.861973 124.537122 86.349988 127.63849 86.349988 L 170.16168 86.349988 C 173.263047 86.349988 175.744141 88.861973 175.744141 91.91709 Z M 175.744141 116.833266 " transform="matrix(0.0566786,0,0,0.0575367,0,0.000459532)"/>
<path style="fill-rule:nonzero;fill:rgb(100%,100%,100%);fill-opacity:1;stroke-width:1.2028;stroke-linecap:butt;stroke-linejoin:miter;stroke:rgb(100%,100%,100%);stroke-opacity:1;stroke-miterlimit:10;" d="M 123.020898 175.491513 C 123.020898 178.54663 120.470885 181.058615 117.369518 181.058615 L 96.280221 181.058615 C 93.178854 181.058615 90.69776 178.54663 90.69776 175.491513 L 90.69776 165.579355 C 90.69776 162.456347 93.178854 160.012253 96.280221 160.012253 L 117.369518 160.012253 C 120.470885 160.012253 123.020898 162.456347 123.020898 165.579355 Z M 123.020898 175.491513 " transform="matrix(0.0566786,0,0,0.0575367,0,0.000459532)"/>
<path style="fill-rule:nonzero;fill:rgb(100%,100%,100%);fill-opacity:1;stroke-width:1.2028;stroke-linecap:butt;stroke-linejoin:miter;stroke:rgb(100%,100%,100%);stroke-opacity:1;stroke-miterlimit:10;" d="M 207.102409 175.491513 C 207.102409 178.54663 204.552396 181.058615 201.451029 181.058615 L 180.361732 181.058615 C 177.260365 181.058615 174.710352 178.54663 174.710352 175.491513 L 174.710352 165.579355 C 174.710352 162.456347 177.260365 160.012253 180.361732 160.012253 L 201.451029 160.012253 C 204.552396 160.012253 207.102409 162.456347 207.102409 165.579355 Z M 207.102409 175.491513 " transform="matrix(0.0566786,0,0,0.0575367,0,0.000459532)"/>
<path style="fill-rule:nonzero;fill:rgb(100%,100%,100%);fill-opacity:1;stroke-width:1.2028;stroke-linecap:butt;stroke-linejoin:miter;stroke:rgb(100%,100%,100%);stroke-opacity:1;stroke-miterlimit:10;" d="M 165.061654 175.491513 C 165.061654 178.54663 162.511641 181.058615 159.410273 181.058615 L 138.320977 181.058615 C 135.219609 181.058615 132.738516 178.54663 132.738516 175.491513 L 132.738516 165.579355 C 132.738516 162.456347 135.219609 160.012253 138.320977 160.012253 L 159.410273 160.012253 C 162.511641 160.012253 165.061654 162.456347 165.061654 165.579355 Z M 165.061654 175.491513 " transform="matrix(0.0566786,0,0,0.0575367,0,0.000459532)"/>
<path style="fill-rule:nonzero;fill:rgb(100%,100%,100%);fill-opacity:1;stroke-width:0.6375;stroke-linecap:butt;stroke-linejoin:miter;stroke:rgb(100%,100%,100%);stroke-opacity:1;stroke-miterlimit:10;" d="M 380.158698 337.141149 L 380.158698 345.899151 C 380.158698 348.275353 379.745182 348.682702 377.539766 348.682702 L 368.373503 348.682702 C 366.030247 348.682702 365.75457 348.275353 365.75457 345.899151 L 365.75457 329.876759 C 365.75457 327.907906 366.099167 327.500557 368.64918 326.957425 C 379.883021 324.309657 385.465482 319.964602 385.465482 313.447019 C 385.465482 307.472568 381.054648 304.213776 373.266771 304.213776 C 368.924857 304.213776 365.75457 304.960583 359.13832 307.879917 C 357.553177 308.558832 357.2775 308.694615 357.001823 308.694615 C 356.31263 308.694615 355.899115 308.151483 355.554518 307.336785 L 352.384232 298.510891 C 352.108555 298.103542 351.970716 297.424628 351.970716 297.153062 C 351.970716 296.134689 352.728828 295.319991 354.313971 294.641076 C 360.930221 291.450176 369.131615 289.617106 375.885703 289.617106 C 391.254701 289.617106 401.454753 299.189806 401.454753 313.718585 C 401.454753 322.680262 396.906081 329.740976 388.842526 333.814466 C 385.947917 335.172296 384.776289 335.715427 380.158698 337.141149 Z M 380.158698 337.141149 " transform="matrix(0.0566786,0,0,0.0575367,0,0.000459532)"/>
<path style="fill-rule:nonzero;fill:rgb(100%,100%,100%);fill-opacity:1;stroke-width:0.6375;stroke-linecap:butt;stroke-linejoin:miter;stroke:rgb(100%,100%,100%);stroke-opacity:1;stroke-miterlimit:10;" d="M 384.293854 373.259421 C 384.293854 379.233872 379.400586 384.122059 373.404609 384.122059 C 367.477552 384.122059 362.584284 379.233872 362.584284 373.259421 C 362.584284 367.28497 367.477552 362.396783 373.404609 362.396783 C 379.400586 362.396783 384.293854 367.28497 384.293854 373.259421 Z M 384.293854 373.259421 " transform="matrix(0.0566786,0,0,0.0575367,0,0.000459532)"/>
<path style=" stroke:none;fill-rule:nonzero;fill:rgb(100%,100%,100%);fill-opacity:1;" d="M 8.332031 17.105469 C 8.320312 17.113281 8.308594 17.121094 8.296875 17.125 C 8.269531 17.144531 8.242188 17.164062 8.21875 17.183594 C 8.210938 17.1875 8.203125 17.195312 8.191406 17.195312 C 8.140625 17.242188 8.078125 17.285156 8.019531 17.292969 C 8 17.3125 7.976562 17.328125 7.953125 17.347656 C 7.875 17.417969 7.785156 17.476562 7.707031 17.542969 C 7.640625 17.59375 7.554688 17.507812 7.570312 17.4375 C 7.558594 17.441406 7.542969 17.441406 7.53125 17.445312 L 9.371094 22.105469 L 9.371094 22.101562 L 9.609375 21.515625 L 10.171875 21.777344 L 10.175781 21.777344 Z M 8.332031 17.105469 "/>
<path style=" stroke:none;fill-rule:nonzero;fill:rgb(100%,100%,100%);fill-opacity:1;" d="M 9.089844 17.320312 C 9.078125 17.296875 9.078125 17.273438 9.082031 17.253906 C 9.011719 17.261719 8.945312 17.265625 8.867188 17.25 C 8.75 17.230469 8.601562 17.1875 8.523438 17.089844 C 8.523438 17.085938 8.523438 17.085938 8.523438 17.085938 L 6.671875 21.777344 L 7.234375 21.515625 L 7.472656 22.101562 L 9.335938 17.390625 C 9.246094 17.425781 9.144531 17.421875 9.089844 17.320312 Z M 9.089844 17.320312 "/>
<path style=" stroke:none;fill-rule:nonzero;fill:rgb(100%,100%,100%);fill-opacity:1;" d="M 8.4375 16.664062 L 8.855469 17.003906 L 9.382812 16.882812 L 9.613281 17.375 L 10.136719 17.492188 L 10.136719 18.039062 L 10.558594 18.378906 L 10.324219 18.871094 L 10.558594 19.363281 L 10.136719 19.699219 L 10.136719 20.246094 L 9.613281 20.367188 L 9.382812 20.859375 L 8.855469 20.734375 L 8.4375 21.078125 L 8.019531 20.734375 L 7.496094 20.859375 L 7.261719 20.367188 L 6.738281 20.246094 L 6.738281 19.699219 L 6.316406 19.363281 L 6.554688 18.871094 L 6.316406 18.378906 L 6.738281 18.039062 L 6.738281 17.492188 L 7.261719 17.375 L 7.496094 16.882812 L 8.019531 17.003906 Z M 8.4375 16.664062 "/>
<path style="fill-rule:nonzero;fill:rgb(100%,100%,100%);fill-opacity:1;stroke-width:2;stroke-linecap:butt;stroke-linejoin:miter;stroke:rgb(43.921569%,43.529412%,43.529412%);stroke-opacity:1;stroke-miterlimit:10;" d="M 173.056289 327.975798 C 173.056289 341.418313 162.098125 352.348842 148.658867 352.348842 C 135.219609 352.348842 124.261445 341.418313 124.261445 327.975798 C 124.261445 314.465391 135.219609 303.602753 148.658867 303.602753 C 162.098125 303.602753 173.056289 314.465391 173.056289 327.975798 Z M 173.056289 327.975798 " transform="matrix(0.0566786,0,0,0.0575367,0,0.000459532)"/>
</g>
</svg>
