<svg id="Ebene_1" data-name="Ebene 1" xmlns="http://www.w3.org/2000/svg" viewBox="0 0 500 500"><path d="M224.92,223.07,11.64,134.72,13,131.49A220.92,220.92,0,0,1,133.35,11.13l3.23-1.34ZM20.81,131,212,210.14,132.8,19A213.82,213.82,0,0,0,20.81,131Z"/><path d="M466.48,176a220.76,220.76,0,0,1,15.67,83.17l-.06,10.46-6.24-8.4c-2-2.71-4.17-5.38-6.38-7.93a134.19,134.19,0,0,0-81.69-44.7l11.83-4.9a141.1,141.1,0,0,1,75.14,45l.23.26a213.73,213.73,0,0,0-15-70.29Z"/><path d="M458.35,263.55A120.88,120.88,0,0,1,367,463.15H330.46v30l-54.6-54.6,54.6-54.6v30H367a71.62,71.62,0,0,0,50.45-122.09c-13.16-13.16-31.08-20.41-50.45-20.41-21.19,0-45,13.84-57.81,33.64-12.41,19.12-22,36.13-31.32,52.58l-.06.11c-1.12,2-2.46,4.45-4,7.3-16,29.36-53.35,98.11-100.82,98.11H52.18l2.57-5.08A3.82,3.82,0,0,1,58.34,456c51-2.13,87.52-13.78,114.91-36.66,25.44-21.25,42.3-51.09,61.82-85.63,10-17.64,20.27-35.87,32.94-55.4a130.53,130.53,0,0,1,46.47-42.95c21.93-11.9,45.94-16.07,69.46-12.06A119,119,0,0,1,458.35,263.55Zm22.15,79.11a114.3,114.3,0,0,0-27.45-74.55A112,112,0,0,0,383,230.23l-.13,0c-22-3.76-44.45.15-65,11.3a123.43,123.43,0,0,0-43.94,40.61c-12.55,19.35-22.8,37.49-32.72,55-32.6,57.7-57.78,102.25-128.86,119H173c43.3,0,79.3-66.19,94.67-94.46,1.56-2.87,2.91-5.36,4.07-7.4l.06-.1c9.35-16.55,19-33.65,31.53-52.95,14.07-21.68,40.26-36.83,63.69-36.83a80.18,80.18,0,0,1,30.23,5.8,75.8,75.8,0,0,1,25.17,16.66,78.52,78.52,0,0,1-55.4,134H323.46V400.83l-37.7,37.7,37.7,37.7V456.15H367A113.62,113.62,0,0,0,480.5,342.66Z"/><path d="M465.17,172.72l1.34,3.24h0C466.06,174.88,465.62,173.8,465.17,172.72Z"/><path d="M466.48,176,460,178.65l-60.4,25-11.83,4.9-.54-.08-.1,0-.4-.08-.23,0-11.45-2.09,11.9-4.93,70.38-29.15,6.46-2.68c.47,1.07.92,2.14,1.37,3.22S466.06,174.88,466.48,176Z"/><path d="M463.83,169.49l1.34,3.23c-.45-1.08-.9-2.15-1.37-3.22Z"/><path d="M463.8,169.5l-6.46,2.68a213.92,213.92,0,0,0-112-112L348,53.73A220.78,220.78,0,0,1,463.8,169.5Z"/><path d="M387.78,208.57h0l-.51-.09Z"/><path d="M387,201.33l-11.9,4.93,11.45,2.09c-24.82-4.25-49.32-.75-72.79,10.4a146.72,146.72,0,0,0-48.35,37.66l-.08,0,5.41-6.88-4.54,1.88,4.52-10.92a152.15,152.15,0,0,1,40-28C335.27,200.76,360.92,197,387,201.33Z"/><path d="M348,53.7v0c-1.07-.47-2.14-.92-3.22-1.37Z"/><path d="M348,53.73l-2.68,6.46L270.68,240.45l-4.52,10.92-6.47,2.68-1.9-.78,1.9-4.58L338.88,57.51,341.56,51c1.09.43,2.17.87,3.25,1.32S347,53.26,348,53.73Z"/><path d="M341.57,51l3.24,1.34c-1.08-.45-2.16-.89-3.25-1.32Z"/><path d="M341.56,51l-2.68,6.47a214,214,0,0,0-158.38,0l79.19,191.18-1.9,4.58-4.56-1.89L171.35,53.7l3.23-1.34A220.89,220.89,0,0,1,341.56,51Z"/><polygon points="270.7 249.49 265.29 256.37 264.26 255.95 266.16 251.37 270.7 249.49"/><polygon points="266.16 251.37 264.26 255.95 259.69 254.05 266.16 251.37"/><path d="M265.29,256.37l.08,0c-.9,1.06-1.77,2.13-2.63,3.21Z"/><polygon points="265.29 256.37 262.74 259.62 264.26 255.95 265.29 256.37"/><path d="M259.69,254.05l4.57,1.9-1.52,3.67h0l-.29.37-.55.71h0l-4.07,1.69-1.9-4.58,1.1-2.67Z"/><path d="M261.87,260.72h0c-1,1.32-2,2.7-3.07,4.17l-.07-.18Z"/><polygon points="261.87 260.72 258.75 264.7 257.8 262.41 261.87 260.72"/><polygon points="259.69 254.05 257 255.16 257.79 253.27 259.69 254.05"/><path d="M258.75,264.7l.07.18c-1.13,1.59-2.28,3.3-3.49,5.18-13,20-23.31,38.26-33.31,55.93-27.23,48.12-48.73,86.12-100.65,104l-1.86.63L118,429.36a223.22,223.22,0,0,1-62.43-83.19l197.65-81.86L246.7,280Zm-9.3,1.55.35-.52L62.05,343.51a216.19,216.19,0,0,0,58.89,79.19c48.09-17.28,68.82-53.92,95-100.15C226,304.78,236.37,286.42,249.45,266.25Z"/><polygon points="258.75 264.7 246.7 280.04 253.22 264.31 257.8 262.41 258.75 264.7"/><polygon points="255.9 257.83 257.8 262.41 253.22 264.31 255.9 257.83"/><polygon points="253.23 251.38 257.79 253.27 257 255.16 255.12 255.95 253.23 251.38"/><polygon points="255.12 255.95 257 255.16 255.9 257.83 255.12 255.95"/><path d="M255.12,256l.78,1.88-2.68,6.48L55.57,346.17c-.37-.85-.74-1.71-1.09-2.57l-.27-.65c-.44-1.07-.88-2.14-1.3-3.22l197.63-81.89Z"/><path d="M253.23,251.38l1.89,4.57-4.58,1.89L59.37,178.64a213.85,213.85,0,0,0,0,158.38l191.18-79.18L52.91,339.73a220.82,220.82,0,0,1,1.3-167l1.34-3.23Z"/><path d="M55.57,346.17h0l-1.06-2.58C54.83,344.46,55.2,345.32,55.57,346.17Z"/><path d="M54.48,343.6l-.27-.63-1.34-3.23h0c.42,1.08.86,2.15,1.3,3.22Z"/></svg>