<svg id="Ebene_1" data-name="Ebene 1" xmlns="http://www.w3.org/2000/svg" viewBox="0 0 500 500"><defs><style>.cls-1{fill-rule:evenodd;}</style></defs><path class="cls-1" d="M383.41,226.76c-49.91-8.54-92,21.86-112.47,53.45C207,378.74,198.09,453.48,58.35,459.34a.52.52,0,0,0-.48.31H173c49.86,0,89.08-81.15,101.79-103.64,9.17-16.21,19-33.61,31.49-52.86h0c12.68-19.55,37.18-35.24,60.75-35.24,21.27,0,39.74,8.25,52.93,21.44A75,75,0,0,1,367,417.41H327v-25l-46.15,46.15L327,484.68v-25H367a117,117,0,0,0,117-117C484,284.42,442.06,234.66,383.41,226.76Z"/><path class="cls-1" d="M16.21,132.83l202.25,83.78L134.68,14.36A218.23,218.23,0,0,0,16.21,132.83Z"/><path class="cls-1" d="M120.23,426.66c50.66-17.43,71.67-54.54,98.74-102.39,9.84-17.39,20.41-36.06,33.42-56.11,2.24-3.45,4.64-6.93,7.3-10.32L57.45,341.63A218.84,218.84,0,0,0,120.23,426.66Z"/><path class="cls-1" d="M259.69,257.84,57.44,341.61a218.2,218.2,0,0,1,0-167.55Z"/><path class="cls-1" d="M175.92,55.59l83.77,202.25L343.47,55.59A218.25,218.25,0,0,0,175.92,55.59Z"/><path class="cls-1" d="M343.47,55.59,259.69,257.84a149.42,149.42,0,0,1,52.53-42.25c21.92-10.41,47.39-15.39,74.92-10.68l.23,0,74.57-30.89A218.23,218.23,0,0,0,343.47,55.59Z"/><path class="cls-1" d="M478.65,259.11a218.05,218.05,0,0,0-16.72-85.05L387.37,205l.27.05a137.14,137.14,0,0,1,84.47,46Q475.53,254.92,478.65,259.11Z"/></svg>